name C:\Users\u0150099\Documents\master_thesis\3dpredictsim\Results\debug\Fal_s1_mtjc2_sc_cspx10_oy2_ATx70_MTc2_MTPm_k1_d01_MTJm_nl_MG_exp5_table_d01_PF_Gefen2002_xv1_ls146_ig21_wAk5e+04_wa2e+03_wpM1e+03_test1.mot
datacolumns 128
datarows 4
range 1.14103485 1.17526590
endheader
time	pelvis_tilt	pelvis_list	pelvis_rotation	pelvis_tx	pelvis_ty	pelvis_tz	hip_flexion_l	hip_adduction_l	hip_rotation_l	hip_flexion_r	hip_adduction_r	hip_rotation_r	knee_angle_l	knee_angle_r	ankle_angle_l	ankle_angle_r	subtalar_angle_l	subtalar_angle_r	mtj_angle_l	mtj_angle_r	mtp_angle_l	mtp_angle_r	lumbar_extension	lumbar_bending	lumbar_rotation	arm_flex_l	arm_add_l	arm_rot_l	arm_flex_r	arm_add_r	arm_rot_r	elbow_flex_l	elbow_flex_r	pro_sup_l	pro_sup_r	glut_med1_l/activation	glut_med2_l/activation	glut_med3_l/activation	glut_min1_l/activation	glut_min2_l/activation	glut_min3_l/activation	semimem_l/activation	semiten_l/activation	bifemlh_l/activation	bifemsh_l/activation	sar_l/activation	add_long_l/activation	add_brev_l/activation	add_mag1_l/activation	add_mag2_l/activation	add_mag3_l/activation	tfl_l/activation	pect_l/activation	grac_l/activation	glut_max1_l/activation	glut_max2_l/activation	glut_max3_l/activation	iliacus_l/activation	psoas_l/activation	quad_fem_l/activation	gem_l/activation	peri_l/activation	rect_fem_l/activation	vas_med_l/activation	vas_int_l/activation	vas_lat_l/activation	med_gas_l/activation	lat_gas_l/activation	soleus_l/activation	tib_post_l/activation	flex_dig_l/activation	flex_hal_l/activation	tib_ant_l/activation	per_brev_l/activation	per_long_l/activation	per_tert_l/activation	ext_dig_l/activation	ext_hal_l/activation	ercspn_l/activation	intobl_l/activation	extobl_l/activation	glut_med1_r/activation	glut_med2_r/activation	glut_med3_r/activation	glut_min1_r/activation	glut_min2_r/activation	glut_min3_r/activation	semimem_r/activation	semiten_r/activation	bifemlh_r/activation	bifemsh_r/activation	sar_r/activation	add_long_r/activation	add_brev_r/activation	add_mag1_r/activation	add_mag2_r/activation	add_mag3_r/activation	tfl_r/activation	pect_r/activation	grac_r/activation	glut_max1_r/activation	glut_max2_r/activation	glut_max3_r/activation	iliacus_r/activation	psoas_r/activation	quad_fem_r/activation	gem_r/activation	peri_r/activation	rect_fem_r/activation	vas_med_r/activation	vas_int_r/activation	vas_lat_r/activation	med_gas_r/activation	lat_gas_r/activation	soleus_r/activation	tib_post_r/activation	flex_dig_r/activation	flex_hal_r/activation	tib_ant_r/activation	per_brev_r/activation	per_long_r/activation	per_tert_r/activation	ext_dig_r/activation	ext_hal_r/activation	ercspn_r/activation	intobl_r/activation	extobl_r/activation	
          1.14103485	         -0.18021312	          1.05234544	         -0.99759379	          1.41469542	          0.91142395	          0.04613386	         -9.97253981	          5.78250936	          1.83683681	         29.34496385	          1.26693090	          5.36108983	        -11.41298726	        -23.54951230	         14.08919256	          3.05892239	          4.91436487	         -0.67223049	          2.72342798	          1.52127631	         -2.56839227	          6.79665076	         -7.27620114	         -2.03930670	         -1.09943594	          7.10294296	        -31.57734739	          1.22997407	          4.83115566	        -31.66172117	          2.41821665	         50.42534646	         44.38325450	         86.51662706	         86.51662706	          0.57965360	          0.52170171	          0.48323602	          0.56077383	          0.54854396	          0.53582350	          0.49181798	          0.52949702	          0.51132165	          0.54411906	          0.54821051	          0.54732499	          0.53688972	          0.51080668	          0.50058573	          0.52076992	          0.55985528	          0.54486381	          0.53794135	          0.48906773	          0.48756902	          0.48755465	          0.59094372	          0.58862741	          0.49690335	          0.53803889	          0.51798251	          0.57622770	          0.53200154	          0.53104308	          0.52561264	          0.34672233	          0.44422158	          0.21602506	          0.48750000	          0.53327117	          0.53285434	          0.60999105	          0.53363969	          0.51997076	          0.56752376	          0.59493227	          0.56081876	          0.54698850	          0.50937007	          0.50733102	          0.47399289	          0.47835578	          0.48274765	          0.53395032	          0.53079187	          0.52552566	          0.53941825	          0.54651864	          0.49822342	          0.69370857	          0.59975619	          0.57995742	          0.54938059	          0.52354300	          0.50712600	          0.42563505	          0.56456909	          0.54495812	          0.56903176	          0.48044532	          0.42474697	          0.40170685	          0.68958916	          0.67993867	          0.53989268	          0.54734243	          0.53101736	          0.53819947	          0.41961936	          0.41348817	          0.38377415	          0.21646318	          0.34393110	          0.10588048	          0.52375314	          0.48971177	          0.50506123	          0.61718020	          0.49383407	          0.49619743	          0.54826096	          0.68303781	          0.64608226	          0.59810157	          0.54270597	          0.53504853	
          1.15244520	         -0.04141777	          0.99592670	         -0.91246762	          1.42912591	          0.90885937	          0.04663133	        -11.09162683	          5.66132099	          1.17046016	         29.64941329	          1.45586001	          5.48321953	        -11.51658233	        -21.99557924	         14.65828616	          3.90541154	          5.60311966	         -0.08395594	          2.79560022	          0.99831188	         -2.75728309	          7.81696409	         -7.39118336	         -2.04948254	         -1.13792050	          7.36595452	        -31.61226207	          1.07909993	          4.83363555	        -31.69975329	          2.49388458	         51.27916732	         44.39720940	         86.51662706	         86.51662706	          0.57420573	          0.51895866	          0.48247568	          0.55835077	          0.54673348	          0.53503328	          0.49005727	          0.52860656	          0.51135050	          0.54276120	          0.54827334	          0.55031235	          0.53908658	          0.51265042	          0.50097862	          0.52026742	          0.55930437	          0.54576095	          0.53871449	          0.48779875	          0.48636299	          0.48637303	          0.59037366	          0.58851453	          0.50204930	          0.54032543	          0.51904866	          0.58154650	          0.53286656	          0.53191809	          0.52622259	          0.36540414	          0.45441337	          0.23660743	          0.49279983	          0.53328794	          0.53459443	          0.59919736	          0.53672066	          0.52913718	          0.56481822	          0.58908740	          0.55996599	          0.56044996	          0.51468744	          0.50076942	          0.47093828	          0.47751567	          0.48311905	          0.53287144	          0.52962421	          0.52488364	          0.52586918	          0.54162599	          0.49096336	          0.67758713	          0.59472097	          0.58039319	          0.55334488	          0.52767757	          0.51140199	          0.43368213	          0.56356683	          0.54507014	          0.56714922	          0.48197341	          0.42967339	          0.41229655	          0.67950773	          0.67027003	          0.54234929	          0.54578689	          0.53080956	          0.54224748	          0.42902240	          0.42331497	          0.39643190	          0.21045070	          0.33610816	          0.10688704	          0.51503621	          0.48752956	          0.50273967	          0.62046146	          0.49750401	          0.49739145	          0.55124097	          0.68716038	          0.64752442	          0.60651198	          0.52844216	          0.52751670	
          1.16385555	          0.09123793	          0.99114129	         -0.84608572	          1.44375472	          0.90617254	          0.04713067	        -12.12777094	          5.59412993	          0.44343457	         29.91999280	          1.60929107	          5.58367865	        -11.78452164	        -20.40055017	         15.18677169	          4.50841544	          6.31888265	          0.52641369	          2.83928679	          0.67910719	         -2.88459168	          8.64192550	         -7.46732078	         -2.10593575	         -1.15523120	          7.65614062	        -31.66787911	          0.88655793	          4.89092656	        -31.74937881	          2.55857049	         52.18152754	         44.48599239	         86.51662706	         86.51662706	          0.57082508	          0.51578693	          0.47942603	          0.55647200	          0.54520872	          0.53400645	          0.48834624	          0.52722288	          0.51108427	          0.54004871	          0.54803067	          0.55184630	          0.54065499	          0.51443739	          0.50139669	          0.52000612	          0.55958260	          0.54640035	          0.53897772	          0.48674397	          0.48539463	          0.48540723	          0.58836161	          0.58687151	          0.50527288	          0.54164791	          0.51900026	          0.58893932	          0.53477101	          0.53384686	          0.52777515	          0.38410832	          0.46422827	          0.26335158	          0.49838566	          0.53370372	          0.53681979	          0.58566672	          0.54049963	          0.53870295	          0.56117328	          0.58098850	          0.55834960	          0.57744807	          0.51577640	          0.49753781	          0.46848196	          0.47800154	          0.48515321	          0.53197557	          0.52886164	          0.52480184	          0.50695634	          0.53424793	          0.47929860	          0.65821707	          0.58935409	          0.57942589	          0.55562439	          0.53093939	          0.51506029	          0.44030520	          0.56347597	          0.54495564	          0.56418571	          0.48456359	          0.43598074	          0.42268841	          0.66809970	          0.66006559	          0.54499942	          0.54517814	          0.53147716	          0.55058691	          0.44049950	          0.43531069	          0.41175125	          0.20124063	          0.32508514	          0.10536329	          0.50646547	          0.48657807	          0.50095530	          0.63206286	          0.49729802	          0.49509211	          0.55570946	          0.69504408	          0.65159721	          0.61088528	          0.51734819	          0.51717433	
          1.17526590	          0.21515449	          1.04798625	         -0.78504432	          1.45855482	          0.90340784	          0.04761537	        -13.08355345	          5.58830315	         -0.32207046	         30.15881979	          1.72793507	          5.69948654	        -12.20025058	        -18.90745457	         15.63865912	          4.98065094	          7.03582517	          1.00690146	          2.85901903	          0.67383587	         -2.92013432	          9.27644637	         -7.49341947	         -2.22191414	         -1.15804618	          7.98275419	        -31.74746121	          0.64671616	          4.97504831	        -31.81396356	          2.61038437	         53.13897879	         44.62820213	         86.51662706	         86.51662706	          0.57011029	          0.51185496	          0.47313180	          0.55560355	          0.54416264	          0.53252147	          0.48671430	          0.52495688	          0.51021123	          0.53599719	          0.54756590	          0.55126289	          0.54091997	          0.51600639	          0.50181231	          0.51990376	          0.56100123	          0.54665409	          0.53847175	          0.48584558	          0.48458522	          0.48457495	          0.58563674	          0.58470430	          0.50530443	          0.54153826	          0.51750381	          0.59939702	          0.53777584	          0.53687807	          0.53019979	          0.40127770	          0.47310025	          0.29545993	          0.50439038	          0.53472686	          0.53964931	          0.56805614	          0.54574835	          0.54785037	          0.55649261	          0.57006821	          0.55554359	          0.59078269	          0.51107064	          0.49835837	          0.46452521	          0.47839098	          0.48714887	          0.53134583	          0.52834520	          0.52480290	          0.48197655	          0.52280346	          0.46150789	          0.63723370	          0.58466085	          0.57805328	          0.55642519	          0.53286452	          0.51722698	          0.44222335	          0.56470022	          0.54476683	          0.56040391	          0.48670876	          0.44068112	          0.42928328	          0.65877392	          0.65260134	          0.54712267	          0.54602539	          0.53334986	          0.56525960	          0.45210322	          0.44739624	          0.42697754	          0.19234326	          0.31482276	          0.10355710	          0.49883511	          0.48733369	          0.50049490	          0.63431782	          0.49416641	          0.49205261	          0.55636226	          0.69928403	          0.65447013	          0.60819250	          0.51302332	          0.50636242	
